<svg xmlns="http://www.w3.org/2000/svg" viewBox="0 0 198.72 211.18"><path d="M186,69.87l3.14,1.95L187,76.71c-3.51-1.19-5.09.71-5.49,4.54l2.65,1.89L182,88l-3.48-.51-2.06,4.77,2.81,2.19L177.34,99c-4.44,0-8.49,6.2-7.29,11.34,1.37,5.91,0,11.09-3.8,15.93-4.42,5.66-9.93,7.61-16.26,5.89s-10.68-5.77-11.21-12.83,1.62-13.56,8-17.51a13.2,13.2,0,0,0,5.39-6.62c5.56-13,11.22-26,16.87-39,2.94-6.77,8.81-9.78,14.45-7.49s7.73,8.74,4.81,15.82C187.56,66.26,186.78,68,186,69.87ZM173.45,84.33c3.3-7.63,6.76-15.19,9.78-22.93a6.92,6.92,0,0,0-.77-5.76c-.88-1.11-3.58-1.48-5.08-.9s-2.57,2.64-3.3,4.29Q164.84,80,155.86,101a8.28,8.28,0,0,1-4.71,5c-6.83,2.9-8.91,13.1-3.89,17.83,3.28,3.09,8,3.61,11.25,1.25,5.55-4,7.22-8.43,5.72-13.8a10,10,0,0,1,.22-5.9C167.26,98.28,170.42,91.33,173.45,84.33ZM33.6,102.4c0,19.65-.06,39.29,0,58.94,0,8.81,6.53,13.9,18.71,13.95q60.33.24,120.68,0c11.73-.05,18.22-5.2,18.38-13.62.12-6.74-.86-39.62.08-46.29.9-6.38-1.22-10.61-10.24-11.94,0,9.61-1.61,46.62-1.68,56.08-.05,6.61-1.22,7.43-10.47,7.43q-56.4,0-112.79,0c-9.72,0-10.82-.76-10.83-7.73q-.06-32.55,0-65.11V87.49H6.61v8.1h27Zm97.6,19.41a44.16,44.16,0,0,1-1.74-6.39c-.78-6.18-4.82-9-9.86-10.28A18,18,0,0,0,102.53,109c-7.83,6.66-10.51,6.62-18.56,0a18.4,18.4,0,0,0-22.84-.8c-3.4,2.46-6.88,4.81-10.36,7.25v7.84c6.83-.34,10.42-2.1,14.21-6.84,4-5,10.4-4.9,14.47.25,6.93,8.75,20.73,8.69,27.7-.13,4-5.07,10.36-5,14.65-.24,2.44,2.68,5.62,4.62,8.46,6.89ZM72.54,79.39c-4.73-6.68-3.41-12.22,1.59-17.9a18.59,18.59,0,0,0-.68-26l-5.89,4.93c4.73,6.83,3.29,12.35-1.69,18a18.59,18.59,0,0,0,.83,25.91ZM102.08,61.5a18.64,18.64,0,0,0-.7-26l-5.86,5c4.71,6.82,3.31,12.34-1.68,18-6.94,7.88-6.26,18.89,1.5,26.62L100.19,79C95.78,72.72,97.07,67.19,102.08,61.5Zm19.49-2.75c-6.67,7.56-5.91,18.26,1.63,26.48,1.66-2,3.31-3.91,5.1-6-4.68-6.55-3.15-12.18,2-18,6.75-7.64,6.07-18.21-1.21-26.18l-5.6,5.32C128.27,47.31,126.7,52.93,121.57,58.75Zm35.16,45c-.94,2.21-1.9,3.79-4.45,4.5-3.34.94-5.23,3.9-5.24,7.4s.49,6.88,4.31,8.36c3.46,1.34,6-.61,8.4-2.66a7.78,7.78,0,0,0,2.57-4.14,7.15,7.15,0,0,0-.58-4.69c-1.19-2.49-.74-4.43.31-6.78,4.13-9.33,8.15-18.71,12.2-28.08.68-1.57,1.36-3.14,2.06-4.74l-5.26-2.28C166.21,81.85,161.42,92.79,156.73,103.78Z" style="fill:#bf9a20"/><rect x="-0.46" y="-0.61" width="199.95" height="211.87" style="fill:none"/></svg>