<svg xmlns="http://www.w3.org/2000/svg" viewBox="0 0 198.72 211.18"><path d="M151,66.84l2.75.38V71c-2.77.21-3.3,1.88-2.43,4.47l2.39.48V79.7l-2.55.64V84l2.6.63v3.46c-3.08,1.22-4,6.38-1.64,9.37a12.06,12.06,0,0,1,2.14,11.37c-1.36,4.9-4.57,7.71-9.46,8.37s-9.1-.74-11.58-5.16-2.93-9.22.27-13.56a8.9,8.9,0,0,0,1.74-5.79c-.06-10,0-20,0-29.95,0-5.2,3.16-8.79,7.74-8.9s7.94,3.5,8,8.89C151,64.05,151,65.38,151,66.84ZM146.68,79.7c0-5.86.13-11.72-.11-17.57a4.85,4.85,0,0,0-2.25-3.52,4.24,4.24,0,0,0-3.78.85c-.79.74-1,2.43-1,3.7q-.11,16.13,0,32.26a5.63,5.63,0,0,1-1.76,4.53c-3.85,3.79-2.23,11,2.65,12.62,3.18,1.08,6.58.1,8.13-2.34,2.63-4.15,2.47-7.48-.17-10.53a6.75,6.75,0,0,1-1.62-3.88C146.58,90.45,146.68,85.07,146.68,79.7ZM57.22,115.47c0,13,0,25.91,0,38.86,0,5.81,3.05,9.17,8.74,9.2q28.2.16,56.39,0c5.48,0,8.51-3.43,8.59-9,.06-4.44-.33-27.46.11-31.86.42-4.21-1.42-6-5.64-6.92,0,6.34,0,31.13,0,37.37,0,4.36-.57,4.9-4.9,4.9H67.82c-4.54,0-5-.5-5.06-5.1q0-21.47,0-42.93v-4.36H44.61V111H57.22Zm63.07,12.24a27.89,27.89,0,0,1-1.2-4.21c-.54-4.08-3.32-5.9-6.8-6.78a12.8,12.8,0,0,0-11.77,2.52c-5.41,4.39-7.26,4.36-12.81,0A13.14,13.14,0,0,0,72,118.68c-2.35,1.62-4.75,3.18-7.15,4.78v5.17c4.71-.23,7.19-1.39,9.8-4.51,2.77-3.3,7.18-3.23,10,.17,4.77,5.77,14.29,5.72,19.1-.09,2.77-3.34,7.15-3.27,10.11-.16a47.41,47.41,0,0,0,5.83,4.55Zm-41.12-28c-3.12-4.41-2.26-8.06,1-11.8a12.28,12.28,0,0,0-.45-17.13l-3.89,3.25c3.12,4.51,2.17,8.15-1.11,11.88A12.25,12.25,0,0,0,75.31,103ZM98.65,88a12.3,12.3,0,0,0-.47-17.17l-3.86,3.28c3.1,4.49,2.18,8.14-1.11,11.87-4.58,5.2-4.13,12.46,1,17.56l3.2-4C94.49,95.34,95.34,91.69,98.65,88Zm12.84-1.82c-4.39,5-3.89,12,1.08,17.46l3.36-4c-3.09-4.32-2.08-8,1.32-11.88,4.45-5,4-12-.8-17.26L112.76,74C115.91,78.59,114.88,82.3,111.49,86.13Zm29.84,11.93a3.69,3.69,0,0,1-1.44,3.46,4.09,4.09,0,0,0-1.16,5.19c.85,1.86,2,3.58,4.54,3.49,2.32-.09,3.31-1.73,4.16-3.39a4.27,4.27,0,0,0,.45-2.82,4.18,4.18,0,0,0-1.5-2.39,4.13,4.13,0,0,1-1.51-3.71c0-6,0-12,0-17.93v-3h-3.58C141.31,84.07,141.29,91.06,141.33,98.06Zm33.53-8.87" style="fill:#bf9a20"/><path d="M99,203.36a24,24,0,0,1-7.1-1.16C44.71,187,14.12,145.05,14,95.42c0-4.4,0-8.81,0-13.21,0-9,.08-18.41-.16-27.56-.23-8.49,3.68-12.93,12.32-14,27.89-3.38,49.05-13.4,64.69-30.61,2.12-2.33,5.48-2.82,7.89-2.8s5.79.53,7.9,2.9c15.24,17.16,36,26.8,65.48,30.36,9.23,1.11,13.45,6.1,12.9,15.24-.31,5.17-.24,10.31-.16,15.75,0,2.35.06,4.71.06,7.06h-.17c1.13,10.09-1.88,38.1-3.77,45.75-9.2,37.27-34.23,62.83-76.52,78.14A16,16,0,0,1,99,203.36ZM25.39,52.46a8.45,8.45,0,0,0-.1,1.88c.25,9.34.2,18.78.16,27.92,0,4.38,0,8.75,0,13.13.11,44.59,27.6,82.25,70,95.94a9.56,9.56,0,0,0,5.15.39c38.43-13.92,61.1-36.86,69.32-70.14,2.5-10.11,3.55-29.14,3.72-37.89h-.11V78.57c0-2.3,0-4.6-.07-6.9-.07-5.41-.15-11,.19-16.59a7.42,7.42,0,0,0-.14-2.66,17.32,17.32,0,0,0-2.73-.56C138.94,48,116.09,37.47,99,18.7h-.52C81,37.44,57.78,48.35,27.56,52A10.17,10.17,0,0,0,25.39,52.46Z" style="fill:#bf9a20"/><rect x="-1.07" y="-1.68" width="200.87" height="213.71" style="fill:none"/></svg>