<svg xmlns="http://www.w3.org/2000/svg" viewBox="0 0 198.72 212.56"><path d="M99.42,207a24.22,24.22,0,0,1-7.28-1.19c-48.38-15.61-79.73-58.55-79.86-109.4,0-4.51,0-9,0-13.54,0-9.27.09-18.86-.16-28.24-.23-8.69,3.78-13.24,12.62-14.31C53.35,36.83,75,26.57,91.06,8.93,93.23,6.54,96.67,6,99.14,6.07s5.94.53,8.09,3c15.62,17.58,36.93,27.47,67.09,31.11,9.46,1.14,13.79,6.25,13.23,15.61-.32,5.3-.25,10.56-.17,16.14,0,2.41.06,4.82.06,7.23h-.17c1.16,10.35-1.93,39-3.87,46.88C174,164.18,148.33,190.37,105,206.06A16.33,16.33,0,0,1,99.42,207ZM24,52.37a8.7,8.7,0,0,0-.11,1.93c.26,9.56.21,19.24.17,28.61,0,4.48,0,9,0,13.45.11,45.68,28.28,84.27,71.75,98.29a9.76,9.76,0,0,0,5.28.4c39.37-14.26,62.6-37.76,71-71.86,2.56-10.36,3.64-29.85,3.82-38.82h-.12V79.12c0-2.35,0-4.71-.07-7.07-.08-5.54-.15-11.27.19-17a7.17,7.17,0,0,0-.15-2.71,15.46,15.46,0,0,0-2.79-.58c-32.62-3.94-56-14.74-73.56-34a4.69,4.69,0,0,0-.53,0C80.93,37,57.15,48.16,26.18,51.92A10.53,10.53,0,0,0,24,52.37ZM101.6,67.29c8.75,12.73,18.22,25,26,38.31,7,11.91,3.54,24.49-7.09,33.06-11.64,9.39-29.5,9.46-41.15.17-10.72-8.55-14.33-21.17-7.4-33C79.79,92.5,89.27,80.16,98,67.39ZM92.35,140,74.78,118.38A19.12,19.12,0,0,0,92.35,140Z" style="fill:#bf9a20"/><rect x="-0.77" y="-0.92" width="199.64" height="213.4" style="fill:none"/></svg>