<svg xmlns="http://www.w3.org/2000/svg" xmlns:xlink="http://www.w3.org/1999/xlink" viewBox="0 0 198.72 211.18"><defs><linearGradient id="a" x1="128.47" y1="109.81" x2="197.02" y2="109.81" gradientUnits="userSpaceOnUse"><stop offset="0" stop-color="#bf9a20"/><stop offset="0.38" stop-color="#c09b22"/><stop offset="0.52" stop-color="#c19e29"/><stop offset="0.62" stop-color="#c5a334"/><stop offset="0.7" stop-color="#caab45"/><stop offset="0.77" stop-color="#d0b55b"/><stop offset="0.83" stop-color="#d8c177"/><stop offset="0.88" stop-color="#e1d097"/><stop offset="0.93" stop-color="#ece1bd"/><stop offset="0.98" stop-color="#f8f4e6"/><stop offset="1" stop-color="#fff"/></linearGradient><linearGradient id="b" x1="19.3" y1="101.68" x2="62.2" y2="101.68" gradientUnits="userSpaceOnUse"><stop offset="0" stop-color="#fff"/><stop offset="0.02" stop-color="#faf8ee"/><stop offset="0.07" stop-color="#eee4c4"/><stop offset="0.13" stop-color="#e3d29c"/><stop offset="0.19" stop-color="#d9c37b"/><stop offset="0.26" stop-color="#d1b65e"/><stop offset="0.33" stop-color="#caac47"/><stop offset="0.42" stop-color="#c5a436"/><stop offset="0.52" stop-color="#c29e29"/><stop offset="0.66" stop-color="#c09b22"/><stop offset="1" stop-color="#bf9a20"/></linearGradient><linearGradient id="c" x1="2.59" y1="101.19" x2="68.38" y2="101.19" gradientUnits="userSpaceOnUse"><stop offset="0" stop-color="#fff"/><stop offset="0.02" stop-color="#f8f4e6"/><stop offset="0.07" stop-color="#ece1bd"/><stop offset="0.12" stop-color="#e1d097"/><stop offset="0.17" stop-color="#d8c177"/><stop offset="0.23" stop-color="#d0b55b"/><stop offset="0.3" stop-color="#caab45"/><stop offset="0.38" stop-color="#c5a334"/><stop offset="0.48" stop-color="#c19e29"/><stop offset="0.62" stop-color="#c09b22"/><stop offset="1" stop-color="#bf9a20"/></linearGradient><linearGradient id="d" x1="59.08" y1="115.69" x2="129.87" y2="115.69" gradientUnits="userSpaceOnUse"><stop offset="0" stop-color="#fff"/><stop offset="0.01" stop-color="#f8f4e6"/><stop offset="0.04" stop-color="#ece1bd"/><stop offset="0.07" stop-color="#e1d097"/><stop offset="0.11" stop-color="#d8c177"/><stop offset="0.15" stop-color="#d0b55b"/><stop offset="0.19" stop-color="#caab45"/><stop offset="0.24" stop-color="#c5a334"/><stop offset="0.3" stop-color="#c19e29"/><stop offset="0.39" stop-color="#c09b22"/><stop offset="0.63" stop-color="#bf9a20"/><stop offset="1" stop-color="#bf9a21"/></linearGradient></defs><rect x="0.29" y="0.49" width="199.03" height="210.96" style="fill:none"/><path d="M147.73,144.4a9.12,9.12,0,0,1-2.38-1.29,41.45,41.45,0,0,1-14.48-47.33l1.63-4.65c1.13-3.19,2.3-6.49,3.34-9.75,1-3,2.91-4.1,6.1-3.4,10.31,2.26,19.05,1.35,26.72-2.79a4.65,4.65,0,0,1,5.58,2c3.29,7.95,9.48,13.93,19.49,18.83,3.14,1.53,4,3.81,2.7,7-.75,1.79-1.36,3.61-2,5.54-.28.83-.56,1.67-.85,2.5l-.06,0c-.84,3.71-5.36,13.21-7,15.68-7.85,12-19.88,17.92-36.76,18.09A6.43,6.43,0,0,1,147.73,144.4ZM140.2,82a3.88,3.88,0,0,0-.27.65c-1.06,3.32-2.24,6.65-3.38,9.87q-.83,2.31-1.63,4.63a37.24,37.24,0,0,0,13,42.52,3.48,3.48,0,0,0,1.78.77c15.34-.15,26.21-5.43,33.23-16.15,2.13-3.26,4.85-9.84,6-12.91l0,0,.63-1.8c.28-.81.55-1.63.83-2.44.64-1.92,1.3-3.9,2.11-5.83a2.79,2.79,0,0,0,.27-1,5.87,5.87,0,0,0-.9-.53C181,94.54,174.22,88,170.47,79.24l-.19-.06c-8.51,4.45-18.08,5.42-29.25,3A3.88,3.88,0,0,0,140.2,82Zm25.09,14.52c1.5,5.44,3.29,10.83,4.4,16.34,1,4.95-1.72,8.86-6.43,10.53A12.41,12.41,0,0,1,149,118.51c-2.68-4.24-2.42-9,1.4-12.26,4.31-3.64,9.07-6.75,13.63-10.09Zm-11.95,23.93-3.48-9.58A7,7,0,0,0,153.34,120.49Z" style="stroke:#936d18;stroke-miterlimit:10;stroke-width:0.15000000596046448px;fill:url(#a)"/><path d="M51.49,82.05l1-.18.42,1.29c-.93.39-.93,1-.34,1.81l.88-.1.42,1.29-.8.51.41,1.26,1-.08L54.82,89c-.92.77-.65,2.65.49,3.41a4.36,4.36,0,0,1,2,3.66,4.23,4.23,0,0,1-6.87,3.47A4.27,4.27,0,0,1,49,94.89,3.29,3.29,0,0,0,49,92.7c-1.15-3.42-2.26-6.85-3.38-10.28a2.93,2.93,0,0,1,1.66-3.93c1.59-.56,3.12.31,3.76,2.15C51.18,81.09,51.32,81.55,51.49,82.05Zm0,4.9c-.66-2-1.27-4-2-6a1.75,1.75,0,0,0-1.17-1,1.52,1.52,0,0,0-1.2.71,2,2,0,0,0,.07,1.38q1.78,5.57,3.62,11.09a2,2,0,0,1-.09,1.75A2.83,2.83,0,0,0,53,99a2.51,2.51,0,0,0,2.54-1.72c.43-1.72,0-2.84-1.25-3.6a2.46,2.46,0,0,1-1-1.15C52.63,90.66,52.06,88.8,51.45,87ZM24.74,109.3q2.18,6.67,4.37,13.35c.66,2,2.08,2.81,4,2.18q9.7-3.12,19.37-6.34a2.93,2.93,0,0,0,1.94-4c-.48-1.54-3.2-9.4-3.54-11s-1.17-1.92-2.72-1.75c.71,2.18,3.51,10.69,4.2,12.84.48,1.5.35,1.75-1.13,2.23l-18.11,5.93c-1.56.51-1.79.39-2.31-1.18L26,106.8c-.16-.5-.32-1-.49-1.5l-6.23,2,.6,1.83,4.33-1.41Zm23-2.89a10.42,10.42,0,0,1-.89-1.31,2.84,2.84,0,0,0-3.09-1.56A4.59,4.59,0,0,0,40,105.73c-1.37,2.11-2,2.31-4.41,1.42a4.77,4.77,0,0,0-5.47,1.59c-.62.83-1.27,1.63-1.92,2.45l.59,1.77a4.22,4.22,0,0,0,2.86-2.64,2.24,2.24,0,0,1,3.44-1.07,4.58,4.58,0,0,0,6.56-2.18,2.34,2.34,0,0,1,3.45-1.19,18,18,0,0,0,2.52.91Zm-17.27-5c-1.57-1.17-1.68-2.52-1-4.18a4.43,4.43,0,0,0-2.08-5.83l-1,1.55c1.58,1.2,1.67,2.56,1,4.21A4.43,4.43,0,0,0,29.56,103Zm5.37-6.24a4.46,4.46,0,0,0-2.09-5.85l-1,1.56c1.57,1.2,1.66,2.55,1,4.2A4.49,4.49,0,0,0,36.1,101l.64-1.74C35.28,98.19,35.16,96.84,35.88,95.19Zm4.21-2.07c-1,2.2,0,4.57,2.33,5.87l.71-1.74c-1.55-1.13-1.62-2.52-.89-4.22A4.52,4.52,0,0,0,40,87.18l-.87,1.62C40.76,90,40.82,91.42,40.09,93.12Zm11.59.74a1.34,1.34,0,0,1-.11,1.35,1.49,1.49,0,0,0,.19,1.92,1.68,1.68,0,0,0,2,.68c.79-.29.94-1,1-1.63a1.52,1.52,0,0,0-.17-1,1.54,1.54,0,0,0-.78-.65,1.49,1.49,0,0,1-.94-1.1c-.65-2.06-1.33-4.11-2-6.17l-.34-1-1.23.41C50.1,89.06,50.88,91.46,51.68,93.86ZM62.2,87.05" style="stroke:#936d18;stroke-miterlimit:10;stroke-width:0.15000000596046448px;fill:url(#b)"/><path d="M49,134.79a8.39,8.39,0,0,1-2.57.4A40.08,40.08,0,0,1,7.63,107.27l-1.47-4.54c-1-3.12-2-6.34-3.15-9.46-1-2.89-.19-4.85,2.66-6.18C14.87,82.79,21,77,24.46,69.3a3.79,3.79,0,0,1,2.39-1.85,3.81,3.81,0,0,1,3,.11c7.16,4.18,15.4,5.16,25.91,3.07,3.3-.66,5.31.58,6.14,3.79.48,1.81,1.08,3.56,1.72,5.43.27.8.55,1.61.81,2.41l-.06,0c1.53,3.34,3.64,13.3,3.85,16.15,1,13.83-4.7,25.43-17.5,35.44A5.93,5.93,0,0,1,49,134.79ZM6.72,91.23a2.85,2.85,0,0,0,.18.66c1.13,3.17,2.18,6.42,3.19,9.57.49,1.5,1,3,1.47,4.51A36,36,0,0,0,46.4,131.06a3.43,3.43,0,0,0,1.81-.44c11.64-9.1,16.85-19.53,15.93-31.89-.28-3.75-2-10.41-3-13.43h0l-.57-1.75c-.26-.79-.53-1.58-.8-2.37-.63-1.85-1.29-3.76-1.8-5.72a2.42,2.42,0,0,0-.35-.89,6,6,0,0,0-1,.11c-11.37,2.26-20.4,1.2-28.39-3.32l-.18,0C24.14,79.82,17.39,86.17,7.42,90.83A3.11,3.11,0,0,0,6.72,91.23Z" style="stroke:#936d18;stroke-miterlimit:10;stroke-width:0.15000000596046448px;fill:url(#c)"/><path d="M127.69,102.16l1.21.75-.82,1.87c-1.34-.45-1.94.27-2.09,1.74l1,.72-.81,1.88-1.33-.2-.79,1.82,1.07.84-.74,1.73c-1.7,0-3.25,2.37-2.79,4.33a6.92,6.92,0,0,1-1.45,6.1,5.58,5.58,0,0,1-6.23,2.25,5.3,5.3,0,0,1-4.29-4.91c-.2-2.7.62-5.19,3-6.7a5,5,0,0,0,2.07-2.53c2.12-5,4.29-9.95,6.45-14.92,1.13-2.59,3.37-3.74,5.53-2.87s3,3.35,1.84,6.06C128.3,100.78,128,101.44,127.69,102.16Zm-4.78,5.54c1.26-2.92,2.59-5.81,3.74-8.77a2.65,2.65,0,0,0-.29-2.21,2,2,0,0,0-2-.34A3.21,3.21,0,0,0,123.15,98c-2.36,5.34-4.67,10.7-7,16.06a3.18,3.18,0,0,1-1.8,1.9c-2.62,1.11-3.41,5-1.49,6.82a3.39,3.39,0,0,0,4.31.48c2.12-1.53,2.76-3.22,2.18-5.28a3.87,3.87,0,0,1,.08-2.26C120.54,113,121.75,110.38,122.91,107.7Zm-53.5,6.91c0,7.52,0,15,0,22.55,0,3.37,2.49,5.32,7.15,5.34q23.09.09,46.17,0c4.49,0,7-2,7-5.21,0-2.58-.33-15.16,0-17.71s-.46-4.06-3.91-4.57c0,3.68-.62,17.84-.65,21.46,0,2.53-.46,2.84-4,2.84H78.09c-3.72,0-4.14-.29-4.15-3q0-12.47,0-24.91v-2.53H59.08V112H69.41ZM106.75,122a16.36,16.36,0,0,1-.67-2.44c-.3-2.36-1.84-3.42-3.77-3.93a6.86,6.86,0,0,0-6.53,1.46c-3,2.55-4,2.53-7.1,0a7,7,0,0,0-8.74-.3c-1.3.94-2.63,1.84-4,2.77v3A6.35,6.35,0,0,0,81.41,120a3.37,3.37,0,0,1,5.54.1,6.83,6.83,0,0,0,10.6,0,3.49,3.49,0,0,1,5.6-.09,26.83,26.83,0,0,0,3.24,2.64ZM84.3,105.81c-1.81-2.56-1.3-4.68.61-6.85A7.12,7.12,0,0,0,84.65,89L82.4,90.91c1.81,2.61,1.26,4.73-.65,6.89a7.11,7.11,0,0,0,.32,9.91ZM95.61,99a7.13,7.13,0,0,0-.27-10L93.1,90.91c1.8,2.6,1.26,4.72-.65,6.88-2.65,3-2.39,7.23.58,10.19l1.85-2.34C93.19,103.26,93.69,101.14,95.61,99Zm7.45-1c-2.55,2.89-2.26,7,.62,10.13l1.95-2.3c-1.79-2.51-1.2-4.66.77-6.89,2.58-2.93,2.32-7-.46-10l-2.15,2C105.62,93.53,105,95.69,103.06,97.91Zm13.45,17.23a2.49,2.49,0,0,1-1.7,1.72,2.79,2.79,0,0,0-2,2.83c0,1.32.18,2.63,1.64,3.2s2.31-.24,3.22-1a3,3,0,0,0,1-1.58,2.77,2.77,0,0,0-.22-1.8,2.76,2.76,0,0,1,.12-2.59c1.58-3.57,3.11-7.16,4.67-10.74l.78-1.82-2-.87C120.14,106.75,118.31,110.94,116.51,115.14Z" style="stroke:#936d18;stroke-miterlimit:10;stroke-width:0.15000000596046448px;fill:url(#d)"/></svg>