<?xml version="1.0" encoding="utf-8"?>
<!-- Generator: Adobe Illustrator 25.2.3, SVG Export Plug-In . SVG Version: 6.00 Build 0)  -->
<svg version="1.1" id="Layer_1" xmlns="http://www.w3.org/2000/svg" xmlns:xlink="http://www.w3.org/1999/xlink" x="0px" y="0px"
	 viewBox="0 0 68.5 68.5" style="enable-background:new 0 0 68.5 68.5;" xml:space="preserve">
<style type="text/css">
	.st0{fill:#BF9A20;}
</style>
<g transform="translate(-1 -0.999)">
	<rect x="25.3" y="61.8" class="st0" width="2.2" height="2.2"/>
	<path class="st0" d="M67.3,25.1c-0.6-0.5-1.6-1.6-1.6-2c0-0.4,1.1-1.4,1.6-2c1.3-1.2,2.6-2.5,2.2-3.9c-0.4-1.5-2.2-2-3.9-2.4
		c-0.8-0.1-1.6-0.4-2.3-0.8c0-0.8,0.1-1.7,0.4-2.5c0.5-1.7,1-3.5-0.1-4.6S60.7,6.4,59,6.9c-0.8,0.3-1.6,0.4-2.4,0.4
		c-0.4-0.7-0.7-1.5-0.8-2.3c-0.4-1.7-0.9-3.5-2.4-3.9c-1.5-0.4-2.7,0.9-3.9,2.2c-0.5,0.6-1.6,1.6-2,1.6c-0.4,0-1.4-1.1-2-1.6
		C44.2,2,43,0.7,41.5,1.1c-1.5,0.4-2,2.2-2.4,3.9c-0.1,0.8-0.4,1.6-0.8,2.3c-0.8,0-1.7-0.1-2.5-0.4c-1.7-0.5-3.5-1-4.6,0.1
		s-0.6,2.9-0.1,4.6c0.3,0.8,0.4,1.6,0.4,2.4c-0.7,0.4-1.5,0.7-2.3,0.8c-1.4,0.3-2.8,0.7-3.5,1.6c-6.2-4-14.4-2.2-18.3,4
		c-2,3.2-2.6,7.1-1.6,10.7c-3.5,0.9-5.6,4.6-4.7,8.1c0.8,2.9,3.4,4.9,6.4,4.9H22V58c-2.7,2.4-3,6.6-0.5,9.3c0.9,1,2.2,1.8,3.5,2.1
		c0.5,0.1,0.9,0.1,1.4,0.1c3.7,0,6.6-2.9,6.6-6.6c0-1.9-0.8-3.7-2.2-5V44.1h14.4c1.4,0,2.8-0.5,4-1.3c0.1,0.1,0.1,0.1,0.2,0.2
		c1.1,1.1,2.2,2.2,3.4,2.2c0.2,0,0.4,0,0.5-0.1c1.5-0.4,2-2.2,2.4-3.9c0.1-0.8,0.4-1.6,0.8-2.3c0.8,0,1.7,0.1,2.5,0.4
		c1.7,0.5,3.5,1,4.6-0.1c1.1-1.1,0.6-2.9,0.1-4.6c-0.3-0.8-0.4-1.6-0.4-2.4c0.7-0.4,1.5-0.7,2.3-0.8c1.7-0.4,3.5-0.9,3.9-2.4
		C69.9,27.6,68.6,26.3,67.3,25.1z M29.2,66.3c-1.9,1.6-4.7,1.3-6.2-0.6c-1.6-1.9-1.3-4.7,0.6-6.2c0.1,0,0.1-0.1,0.2-0.1l0.4-0.3
		v-3.9h2.2V53h-2.2v-2.2h2.2v-2.2h-2.2v-2.2h2.2v-2.2h-2.2v-2.2h2.2v-2.2h-2.2v-2.2h2.2v-2.2h-2.2v-2.2c0-1.2,0.9-2.2,2.2-2.3
		s2.2,0.9,2.3,2.2c0,0,0,0.1,0,0.1v26l0.4,0.3c1.9,1.5,2.3,4.2,0.9,6.2C29.7,65.8,29.5,66.1,29.2,66.3L29.2,66.3z M45.2,41.9H30.8
		v-8.8c0-2.4-2-4.4-4.4-4.4s-4.4,2-4.4,4.4l0,0v8.8H7.6c-2.4,0-4.4-2-4.4-4.4c0-2.4,2-4.4,4.4-4.4s4.4,2,4.4,4.4h2.2
		c0-3.5-2.7-6.3-6.1-6.6c-1.8-5.8,1.4-12,7.2-13.9s12,1.4,13.9,7.2c0.3,1.1,0.5,2.2,0.5,3.3H32c0-1.2-0.2-2.4-0.5-3.5
		c4.4-2.1,9.6-0.3,11.8,4.1C43.7,29,43.9,30,44,31c-3.2,0.6-5.5,3.3-5.5,6.5h2.2c0-2.4,2-4.4,4.4-4.4s4.4,2,4.4,4.4
		C49.6,39.9,47.7,41.9,45.2,41.9L45.2,41.9z M46.3,30.9c-0.5-5.6-5.2-9.9-10.8-10c1.2-6.6,7.6-11,14.2-9.8s11,7.6,9.8,14.2
		c-0.8,4.4-3.9,8-8.2,9.3C50.3,32.7,48.4,31.3,46.3,30.9L46.3,30.9z M65,29.3c-1.6,0.4-3,0.8-3.7,1.9c-0.6,1.1-0.2,2.6,0.2,4.2
		c0.3,0.8,0.4,1.6,0.5,2.4c-0.8,0-1.7-0.1-2.4-0.4c-1.6-0.4-3-0.9-4.2-0.2s-1.5,2.1-1.9,3.7c-0.2,0.8-0.4,1.6-0.8,2.3
		c-0.4,0-1.3-1-1.9-1.6c-0.1-0.1-0.2-0.2-0.3-0.3c0.7-1.1,1.1-2.4,1.1-3.7c0-0.2,0-0.5,0-0.7c7.6-2.4,11.7-10.5,9.3-18.1
		S50.6,7,43.1,9.4c-5.3,1.7-9.1,6.2-9.9,11.7c-0.9,0.2-1.7,0.4-2.5,0.8c-0.7-1.6-1.8-3-3.1-4.2c0.7-0.4,1.5-0.6,2.3-0.8
		c1.6-0.4,3-0.8,3.7-1.9c0.6-1.1,0.2-2.6-0.2-4.2c-0.3-0.8-0.4-1.6-0.5-2.4c0.8,0,1.7,0.1,2.4,0.4c1.6,0.4,3,0.9,4.2,0.2
		s1.5-2.1,1.9-3.7C41.4,4.7,41.7,4,42,3.2c0.4,0,1.3,1,1.9,1.6c1.1,1.1,2.2,2.3,3.5,2.3s2.4-1.2,3.5-2.3c0.5-0.6,1.1-1.1,1.8-1.6
		c0.4,0.7,0.7,1.5,0.9,2.4c0.4,1.6,0.8,3,1.9,3.7C56.5,9.9,58,9.4,59.6,9c0.8-0.3,1.6-0.4,2.4-0.5c0,0.8-0.1,1.7-0.4,2.4
		c-0.4,1.6-0.9,3-0.2,4.2s2.1,1.5,3.7,1.9c0.8,0.2,1.6,0.4,2.3,0.8c0,0.4-1,1.3-1.6,1.9c-1.1,1.1-2.3,2.2-2.3,3.5s1.2,2.4,2.3,3.5
		c0.6,0.5,1.1,1.1,1.6,1.8C66.6,28.8,65.8,29.1,65,29.3L65,29.3z"/>
</g>
</svg>
