<?xml version="1.0" encoding="utf-8"?>
<!-- Generator: Adobe Illustrator 25.2.3, SVG Export Plug-In . SVG Version: 6.00 Build 0)  -->
<svg version="1.1" id="Layer_1" xmlns="http://www.w3.org/2000/svg" xmlns:xlink="http://www.w3.org/1999/xlink" x="0px" y="0px"
	 viewBox="0 0 60 60" style="enable-background:new 0 0 60 60;" xml:space="preserve">
<style type="text/css">
	.st0{fill:#FFFFFF;stroke:#BF9A20;stroke-miterlimit:10;}
</style>
<g transform="translate(-612 -2195)">
	<path class="st0" d="M671,2222h-20c-0.6,0-1,0.4-1,1v31c0,0.6,0.4,1,1,1h20c0.6,0,1-0.4,1-1v-31C672,2222.4,671.6,2222,671,2222z
		 M657,2253v-5h8v5H657z M670,2253h-3v-6c0-0.6-0.4-1-1-1h-10c-0.6,0-1,0.4-1,1v6h-3v-29h18V2253z"/>
	<path class="st0" d="M655,2234h4c0.6,0,1-0.4,1-1v-6c0-0.6-0.4-1-1-1h-4c-0.6,0-1,0.4-1,1v6C654,2233.6,654.4,2234,655,2234z
		 M656,2228h2v4h-2V2228z"/>
	<path class="st0" d="M663,2234h4c0.6,0,1-0.4,1-1v-6c0-0.6-0.4-1-1-1h-4c-0.6,0-1,0.4-1,1v6C662,2233.6,662.4,2234,663,2234z
		 M664,2228h2v4h-2V2228z"/>
	<path class="st0" d="M655,2244h4c0.6,0,1-0.4,1-1v-6c0-0.6-0.4-1-1-1h-4c-0.6,0-1,0.4-1,1v6C654,2243.6,654.4,2244,655,2244z
		 M656,2238h2v4h-2V2238z"/>
	<path class="st0" d="M663,2244h4c0.6,0,1-0.4,1-1v-6c0-0.6-0.4-1-1-1h-4c-0.6,0-1,0.4-1,1v6C662,2243.6,662.4,2244,663,2244z
		 M664,2238h2v4h-2V2238z"/>
	<path class="st0" d="M613,2255h34c0.6,0,1-0.4,1-1v-4c0-0.6-0.4-1-1-1h-15v-38h28v3.2c-1.6,0.6-2.4,2.3-1.8,3.8
		c0.6,1.6,2.3,2.4,3.8,1.8c1.2-0.4,2-1.6,2-2.8h-2c0,0.6-0.4,1-1,1s-1-0.4-1-1s0.4-1,1-1s1-0.4,1-1v-4h3v-2h-3.8l-7.5-3h7.3v-2
		h-12.3l-22.3-8.9c-0.4-0.2-0.9,0-1.2,0.3l-6.7,8.6H612v2h4v3h-4v2h6v38h-5c-0.6,0-1,0.4-1,1v4C612,2254.6,612.4,2255,613,2255z
		 M628,2206v1.9l-2.2-1.9H628z M631,2209h-1v-1.9l2.2,1.9H631z M625.4,2243h4.6v4.6L625.4,2243z M628.6,2225H624v-4.6L628.6,2225z
		 M628.6,2233H624v-4.6L628.6,2233z M628.6,2241H624v-4.6L628.6,2241z M625.4,2235h4.6v4.6L625.4,2235z M625.4,2227h4.6v4.6
		L625.4,2227z M625.4,2219h4.6v4.6L625.4,2219z M624,2217v-4.6l4.6,4.6H624z M643.8,2206h2.2v1.9L643.8,2206z M644.2,2209H642v-1.9
		L644.2,2209z M640,2207.9l-2.2-1.9h2.2V2207.9z M638.2,2209H636v-1.9L638.2,2209z M634,2207.9l-2.2-1.9h2.2V2207.9z M626.2,2209
		H624v-1.9L626.2,2209z M622,2207.9l-2.2-1.9h2.2V2207.9z M624,2244.4l4.6,4.6H624V2244.4z M630,2215.6l-4.6-4.6h4.6V2215.6z
		 M655.8,2209H648v-3h0.3L655.8,2209z M627,2204v-6.5l16.3,6.5H627z M625,2198.9v5.1h-4L625,2198.9z M618,2207.1l2.2,1.9H618V2207.1
		z M620,2211h2v38h-2V2211z M614,2251h32v2h-32V2251z"/>
</g>
</svg>
