<?xml version="1.0" encoding="utf-8"?>
<!-- Generator: Adobe Illustrator 25.2.3, SVG Export Plug-In . SVG Version: 6.00 Build 0)  -->
<svg version="1.1" id="Layer_1" xmlns="http://www.w3.org/2000/svg" xmlns:xlink="http://www.w3.org/1999/xlink" x="0px" y="0px"
	 viewBox="0 0 56.5 56.5" style="enable-background:new 0 0 56.5 56.5;" xml:space="preserve">
<style type="text/css">
	.st0{fill:#BF9A20;}
</style>
<g transform="translate(-8 -8)">
	<path class="st0" d="M62.7,33.5v-7.3c0-0.5-0.4-0.9-0.9-0.9H60c0-2-1.6-3.6-3.6-3.6s-3.6,1.6-3.6,3.6h-1.8c-0.5,0-0.9,0.4-0.9,0.9
		v7.3H49V20.8C49,13.7,43.3,8,36.3,8s-12.8,5.7-12.8,12.8v12.8h-1.8V29c0-0.5-0.4-0.9-0.9-0.9c0,0,0,0,0,0h-1.8v-2.7
		c0-0.5-0.4-0.9-0.9-0.9c0,0,0,0,0,0h-3.6c-0.5,0-0.9,0.4-0.9,0.9l0,0v2.7h-0.9c-0.5,0-0.9,0.4-0.9,0.9l0,0v4.6H9.8
		c-1,0-1.8,0.8-1.8,1.8V59c0,1,0.8,1.8,1.8,1.8h1.8v2.7c0,0.5,0.4,0.9,0.9,0.9c0,0,0,0,0,0h2.7c0.4,0,0.8-0.3,0.9-0.7l0.7-3h38.7
		l0.7,3c0.1,0.4,0.5,0.7,0.9,0.7H60c0.5,0,0.9-0.4,0.9-0.9v-2.7h1.8c1,0,1.8-0.8,1.8-1.8V35.3C64.5,34.3,63.7,33.5,62.7,33.5z
		 M56.3,23.5c1,0,1.8,0.8,1.8,1.8h-3.6C54.5,24.3,55.3,23.5,56.3,23.5z M51.8,27.1h0.9v0.9c0,0.5,0.4,0.9,0.9,0.9
		c0.5,0,0.9-0.4,0.9-0.9c0,0,0,0,0-0.1v-0.9h3.6v0.9c0,0.5,0.4,0.9,0.9,0.9c0.5,0,0.9-0.4,0.9-0.9v-0.9h0.9v6.4h-9.1V27.1z
		 M25.3,20.8c0-6,4.9-10.9,10.9-10.9s10.9,4.9,10.9,10.9c0,0,0,0,0,0v12.8h-0.9V20.8c0-5.5-4.5-10-10-10s-10,4.5-10,10v12.8h-0.9
		V20.8z M44.5,20.8v12.8H28.1V20.8c0-4.5,3.7-8.2,8.2-8.2C40.8,12.6,44.5,16.2,44.5,20.8L44.5,20.8z M15.3,26.2h1.8v1.8h-1.8
		L15.3,26.2z M13.5,29.9h6.4v3.6h-6.4V29.9z M14.6,62.7h-1.1v-1.8H15L14.6,62.7z M59.1,62.7h-1.1l-0.5-1.8H59L59.1,62.7z M62.7,59
		H9.8V35.3h52.9V59z"/>
	<path class="st0" d="M60.9,36.3H11.6c-0.5,0-0.9,0.4-0.9,0.9v20.1c0,0.5,0.4,0.9,0.9,0.9h49.2c0.5,0,0.9-0.4,0.9-0.9V37.2
		C61.8,36.7,61.4,36.3,60.9,36.3z M60,46.3H37.2v-8.2H60L60,46.3z M35.3,38.1v8.2H12.6v-8.2H35.3z M12.6,48.1h22.8v8.2H12.6
		L12.6,48.1z M37.2,56.3v-8.2H60v8.2H37.2z"/>
	<path class="st0" d="M20.8,43.6h5.5c0.5,0,0.9-0.4,0.9-0.9c0-0.5-0.4-0.9-0.9-0.9h-5.5c-0.5,0-0.9,0.4-0.9,0.9
		C19.9,43.2,20.3,43.5,20.8,43.6z"/>
	<path class="st0" d="M26.2,51.8h-5.5c-0.5,0-0.9,0.4-0.9,0.9c0,0.5,0.4,0.9,0.9,0.9c0,0,0,0,0.1,0h5.5c0.5,0,0.9-0.4,0.9-0.9
		C27.1,52.2,26.7,51.8,26.2,51.8z"/>
	<path class="st0" d="M46.3,43.6h5.5c0.5,0,0.9-0.4,0.9-0.9c0-0.5-0.4-0.9-0.9-0.9c0,0,0,0-0.1,0h-5.5c-0.5,0-0.9,0.4-0.9,0.9
		C45.3,43.1,45.7,43.5,46.3,43.6C46.2,43.6,46.3,43.6,46.3,43.6z"/>
	<path class="st0" d="M51.8,51.8h-5.5c-0.5,0-0.9,0.4-0.9,0.9c0,0.5,0.4,0.9,0.9,0.9c0,0,0,0,0.1,0h5.5c0.5,0,0.9-0.4,0.9-0.9
		C52.7,52.2,52.3,51.8,51.8,51.8C51.8,51.8,51.8,51.8,51.8,51.8z"/>
	<path class="st0" d="M40.2,19.2l-9.1,9.1c-0.3,0.4-0.3,0.9,0,1.3c0.4,0.3,0.9,0.3,1.2,0l9.1-9.1c0.4-0.3,0.4-0.9,0-1.3
		C41.2,18.8,40.6,18.8,40.2,19.2C40.2,19.2,40.2,19.2,40.2,19.2z"/>
	<path class="st0" d="M32.6,24.4c0.2,0,0.5-0.1,0.6-0.3l3.6-3.6c0.3-0.4,0.3-0.9,0-1.3c-0.4-0.3-0.9-0.3-1.2,0L32,22.9
		c-0.4,0.4-0.4,0.9,0,1.3C32.1,24.3,32.4,24.4,32.6,24.4L32.6,24.4z"/>
	<path class="st0" d="M38.8,25.1l-2.7,2.7c-0.3,0.4-0.3,0.9,0,1.3c0.4,0.3,0.9,0.3,1.2,0l2.7-2.7c0.3-0.4,0.3-0.9,0-1.3
		C39.7,24.8,39.2,24.8,38.8,25.1z"/>
</g>
</svg>
