<?xml version="1.0" encoding="utf-8"?>
<!-- Generator: Adobe Illustrator 25.2.3, SVG Export Plug-In . SVG Version: 6.00 Build 0)  -->
<svg version="1.1" id="Layer_1" xmlns="http://www.w3.org/2000/svg" xmlns:xlink="http://www.w3.org/1999/xlink" x="0px" y="0px"
	 viewBox="0 0 41.7 55.9" style="enable-background:new 0 0 41.7 55.9;" xml:space="preserve">
<style type="text/css">
	.st0{fill:#FFFFFF;stroke:#BF9A20;stroke-width:1.5;stroke-linecap:round;stroke-linejoin:round;stroke-miterlimit:10;}
</style>
<g transform="translate(12709.101 -2034.777)">
	<path class="st0" d="M-12669.8,2084.9h-36.9c-0.9,0-1.6-0.7-1.6-1.6v-46.1c0-0.9,0.7-1.6,1.6-1.6c0,0,0,0,0,0h36.9
		c0.9,0,1.6,0.7,1.6,1.6c0,0,0,0,0,0v46.1C-12668.2,2084.2-12668.9,2084.9-12669.8,2084.9z"/>
	<path class="st0" d="M-12671.5,2062.3v19.3h-33.5v-19.3"/>
	<path class="st0" d="M-12671.5,2038.9h-33.5v23.4h33.5L-12671.5,2038.9z"/>
	<path class="st0" d="M-12688.3,2064.8v14.2"/>
	<path class="st0" d="M-12691.6,2071.5L-12691.6,2071.5L-12691.6,2071.5L-12691.6,2071.5
		C-12691.6,2071.5-12691.6,2071.5-12691.6,2071.5z"/>
	<path class="st0" d="M-12684.9,2071.5L-12684.9,2071.5L-12684.9,2071.5L-12684.9,2071.5
		C-12684.9,2071.5-12684.9,2071.5-12684.9,2071.5z"/>
	<path class="st0" d="M-12705,2085.8v4.2h1.7l1.7-4.2"/>
	<path class="st0" d="M-12671.5,2085.8v4.2h-1.7l-1.7-4.2"/>
	<path class="st0" d="M-12702.5,2050.6h28.5"/>
	<path class="st0" d="M-12701.7,2043.1l0.8,7.5"/>
	<path class="st0" d="M-12698.3,2043.1l0.8,7.5"/>
	<path class="st0" d="M-12695,2043.1l0.8,7.5"/>
	<path class="st0" d="M-12691.6,2043.1l0.8,7.5"/>
	<path class="st0" d="M-12688.3,2043.1l0.8,7.5"/>
	<path class="st0" d="M-12674.9,2054.8l-0.8,7.5"/>
	<path class="st0" d="M-12678.2,2054.8l-0.8,7.5"/>
	<path class="st0" d="M-12681.6,2054.8l-0.8,7.5"/>
</g>
</svg>
