<svg xmlns="http://www.w3.org/2000/svg" viewBox="0 0 62.2 62.2"><path d="M60.5,14.58a3.54,3.54,0,0,0,.77-2.48c-.08-1.76-1.9-3.29-3.35-3.79a3.67,3.67,0,0,0-4.15,1.35q-3.78,4.69-7.54,9.4c-.11.13-.23.25-.44.48V18.8c0-1.92,0-3.84,0-5.75a3.27,3.27,0,0,0-3.54-3.56H36.08c-.22,0-.43,0-.62,0a1.06,1.06,0,0,1-.05-.19c0-.5,0-1,0-1.51,0-1-.25-1.29-1.28-1.29H31.41c0-.35,0-.61,0-.87a4.56,4.56,0,0,0-4.51-4.48c-2.32-.07-4.65-.08-7,0a4.53,4.53,0,0,0-4.37,4.35c0,.28,0,.56,0,.89H12.72c-1,0-1.23.28-1.24,1.22,0,.62,0,1.23,0,1.9H4.61A3.26,3.26,0,0,0,1.09,13c0,1.39,0,2.79,0,4.18V57.46c0,2.49,1.28,3.77,3.76,3.77H42.16a3.32,3.32,0,0,0,3.63-3.6c0-1.74,0-3.47,0-5.21a1.24,1.24,0,0,1,.41-1c.59-.55,1.15-1.14,1.72-1.71s.71-1,0-1.79l-1.45-1.59c.59-1.57,1.13-3,1.7-4.46a.73.73,0,0,1,.5-.35c.72-.09,1.45-.1,2.17-.17a.9.9,0,0,0,.95-1q0-1.84,0-3.69a.88.88,0,0,0-.93-1c-.69-.05-1.37-.11-2.06-.13A.66.66,0,0,1,48.1,35a23.93,23.93,0,0,0-1.05-2.7.8.8,0,0,1,.11-1Q53.84,22.94,60.5,14.58Zm-4.87-4.19a1.81,1.81,0,0,1,1.45-.34,3.32,3.32,0,0,1,2.24,1.78,1.58,1.58,0,0,1-.21,1.71c-.61.8-1.25,1.58-1.92,2.42-1.25-1-2.46-2-3.75-3A30.21,30.21,0,0,1,55.63,10.39ZM19.67,3Q23.36,2.85,27,3c1.54.06,2.51,1.52,2.4,3.36H17.34A2.69,2.69,0,0,1,19.67,3ZM13.36,8.34H33.53v4.85H13.36ZM44,57.74c0,1.2-.52,1.73-1.73,1.73H4.54c-1.09,0-1.59-.51-1.61-1.6,0-.87,0-1.73,0-2.6V38q0-12.31,0-24.63a4.34,4.34,0,0,1,0-.72,1.24,1.24,0,0,1,1.13-1.16c2.44,0,4.87,0,7.39,0,0,.83,0,1.57,0,2.32,0,.92.28,1.2,1.19,1.2H34.23c.87,0,1.16-.28,1.17-1.16s0-1.53,0-2.34c.22,0,.39-.05.56-.05h6.3c1.19,0,1.69.51,1.69,1.71,0,2.81,0,5.61,0,8.42a1.06,1.06,0,0,1-.15.62c-1,1.31-2,2.59-3.08,3.88L37.49,24.9c-.05-.75-.09-1.57-.16-2.39s-.35-1.07-1.16-1.07q-1.7,0-3.39,0c-.82,0-1.07.25-1.14,1.07s-.07,1.37-.17,2a.79.79,0,0,1-.41.52c-1.29.56-2.59,1.1-3.9,1.61a.8.8,0,0,1-.66-.08c-.56-.43-1.07-.92-1.61-1.38a1.07,1.07,0,0,0-1.66.07l-2.4,2.39a.93.93,0,0,0,0,1.52c.47.53.94,1.06,1.43,1.57a.5.5,0,0,1,.1.67c-.56,1.27-1.1,2.55-1.59,3.84-.13.36-.27.51-.66.52-.69,0-1.37.07-2,.12a.92.92,0,0,0-1,1c0,.33,0,.66,0,1,0,.9,0,1.81,0,2.71a.92.92,0,0,0,1,1c.7,0,1.41.11,2.11.12.35,0,.46.16.58.47.51,1.31,1.07,2.6,1.59,3.91a.74.74,0,0,1-.07.6c-.46.56-1,1.08-1.46,1.62a1,1,0,0,0,0,1.5c.84.84,1.7,1.67,2.57,2.48a.86.86,0,0,0,1.34,0c.61-.51,1.18-1.05,1.8-1.53a.73.73,0,0,1,.6-.07c1.31.52,2.6,1.09,3.91,1.6.29.11.43.21.45.52,0,.75.11,1.49.15,2.24a.88.88,0,0,0,.93.91c1.25,0,2.51,0,3.76,0a.92.92,0,0,0,1-.94c0-.74.08-1.49.17-2.23a.69.69,0,0,1,.39-.46c1.42-.57,2.84-1.09,4.42-1.69.4.36,1,.85,1.52,1.39a1,1,0,0,1,.13.62C44,54.39,44,56.06,44,57.74Zm3.7-20.32c.76,0,1.52.12,2.3.18v2.08c-.78,0-1.54.12-2.3.16a1,1,0,0,0-1.08,1,11,11,0,0,1-2,4.8c-.44.6-.41.93.1,1.5l1.6,1.77L44.7,50.35l-1.78-1.6a1,1,0,0,0-1.42-.1,11.57,11.57,0,0,1-4.84,2,1,1,0,0,0-.92,1c0,.76-.11,1.53-.17,2.34H33.48c-.06-.81-.13-1.61-.18-2.41a.93.93,0,0,0-.9-.95,11.51,11.51,0,0,1-4.75-1.86c-.73-.49-.92-.48-1.6.07l-1.79,1.48-1.43-1.49,1.38-1.55c.57-.64.6-.94.12-1.65A13,13,0,0,1,22.43,41c-.2-.93-.39-1.07-1.36-1.12L19,39.77V37.61c.76-.07,1.53-.16,2.31-.19a1,1,0,0,0,1.06-.92,12,12,0,0,1,2.1-4.92,1,1,0,0,0-.12-1.4c-.54-.55-1.06-1.11-1.61-1.69l1.54-1.37,1.47,1.31c.73.66,1,.68,1.8.15A11.72,11.72,0,0,1,32,26.81c1-.17,1.13-.35,1.19-1.34,0-.68.11-1.36.16-2.12.63,0,1.23,0,1.83,0,.11,0,.27.26.28.41.08.66.11,1.33.15,2a1,1,0,0,0,.85,1c1,.21,1.9.5,2.89.77l-2.23,3.23c-.48-.09-1.09-.23-1.7-.31a8.48,8.48,0,1,0,7.27,6.4.79.79,0,0,1,.12-.63c.89-.84,1.81-1.64,2.86-2.58.31.92.68,1.85.93,2.81C46.72,37.07,47,37.4,47.65,37.42ZM32.48,43.15c.47.35.88.17,1.31-.16,2.23-1.7,4.47-3.38,6.71-5.07l.49-.36a6.63,6.63,0,1,1-11.73-3c1.71-2.21,5.08-3.22,7.28-2.13l-1.88,4.17c-.78,1.72-1.56,3.45-2.35,5.17C32.08,42.29,32,42.77,32.48,43.15Zm3-3.9a.39.39,0,0,0-.1-.08l3.46-7.59,3.36,2.63Zm8.09-6.32-3.73-3,12.49-15.6c1.23,1,2.45,2,3.74,3C51.93,22.52,47.79,27.7,43.6,32.93Z" style="fill:#bf9a20"/><path d="M19.22,21.44l-5.68,4.63c-.79.65-1.59,1.31-2.39,1.95a1,1,0,0,1-1.73-.24c-.84-1.24-1.66-2.48-2.48-3.73-.39-.59-.31-1.13.18-1.43s1-.16,1.37.43c.66,1,1.3,2,2,3.13,2.33-1.9,4.61-3.74,6.88-5.58l.71-.57a.91.91,0,0,1,1.34,0A.88.88,0,0,1,19.22,21.44Z" style="fill:#bf9a20"/><path d="M16.3,55.05c.1.65-.29,1.06-1.05,1.06H5.82c-.72,0-1.06-.3-1.06-.88a.8.8,0,0,1,.75-.92,3,3,0,0,1,.42,0h9.19C15.86,54.28,16.22,54.53,16.3,55.05Z" style="fill:#bf9a20"/><path d="M15.32,50.35c-1.59,0-3.19,0-4.78,0H6c-.85,0-1.2-.28-1.2-.93s.36-.9,1.17-.9h9.25a1,1,0,0,1,1.08.59A.88.88,0,0,1,15.32,50.35Z" style="fill:#bf9a20"/><path d="M16.31,43.74a.83.83,0,0,1-.88.87c-.91,0-1.82,0-2.72,0H10.47c-1.51,0-3,0-4.53,0a2.1,2.1,0,0,1-.76-.14.73.73,0,0,1-.39-1,1.24,1.24,0,0,1,.72-.67,13.17,13.17,0,0,1,2-.05h7.37a5,5,0,0,1,.55,0A.87.87,0,0,1,16.31,43.74Z" style="fill:#bf9a20"/><path d="M15.31,33.12c-1.59,0-3.18,0-4.77,0H5.82c-.53,0-1-.16-1.05-.77a.85.85,0,0,1,.91-1.06c1.11,0,2.22,0,3.32,0h6.17a1,1,0,0,1,1.09.59C16.52,32.52,16.08,33.11,15.31,33.12Z" style="fill:#bf9a20"/><path d="M14.76,37.91a2,2,0,0,1,0,.23.85.85,0,0,1-1,.72H5.86c-.76,0-1.1-.29-1.11-.89S5.11,37,5.88,37h7.8C14.38,37,14.76,37.36,14.76,37.91Z" style="fill:#bf9a20"/></svg>