<?xml version="1.0" encoding="utf-8"?>
<!-- Generator: Adobe Illustrator 25.2.3, SVG Export Plug-In . SVG Version: 6.00 Build 0)  -->
<svg version="1.1" id="Layer_1" xmlns="http://www.w3.org/2000/svg" xmlns:xlink="http://www.w3.org/1999/xlink" x="0px" y="0px"
	 viewBox="0 0 55.1 51.7" style="enable-background:new 0 0 55.1 51.7;" xml:space="preserve">
<style type="text/css">
	.st0{fill:none;stroke:#BF9A20;stroke-width:1.5;stroke-linecap:round;stroke-linejoin:round;stroke-miterlimit:10;}
</style>
<g transform="translate(12479.116 -1885.072)">
	<path class="st0" d="M-12476.7,1918.5v17.6h1.7l1.7-3.3"/>
	<path class="st0" d="M-12426.5,1918.5v17.6h-1.7l-1.7-3.3"/>
	<path class="st0" d="M-12424.8,1916h-53.6v-4.2h53.6V1916z"/>
	<path class="st0" d="M-12473.3,1931.9h43.5"/>
	<path class="st0" d="M-12459.9,1918.5v10.9"/>
	<path class="st0" d="M-12443.2,1918.5v10.9"/>
	<path class="st0" d="M-12476.7,1931.9h50.2"/>
	<path class="st0" d="M-12431.9,1906.8h-39.3v-20.9h39.3V1906.8z"/>
	<path class="st0" d="M-12462,1906.8l-2.5,2.5"/>
	<path class="st0" d="M-12441.9,1906.8l2.5,2.5"/>
	<path class="st0" d="M-12459.9,1924.3h16.7"/>
	<path class="st0" d="M-12463.3,1920.2L-12463.3,1920.2L-12463.3,1920.2L-12463.3,1920.2z"/>
	<path class="st0" d="M-12439.9,1920.2L-12439.9,1920.2L-12439.9,1920.2L-12439.9,1920.2z"/>
</g>
</svg>
