<?xml version="1.0" encoding="utf-8"?>
<!-- Generator: Adobe Illustrator 25.2.3, SVG Export Plug-In . SVG Version: 6.00 Build 0)  -->
<svg version="1.1" id="Layer_1" xmlns="http://www.w3.org/2000/svg" xmlns:xlink="http://www.w3.org/1999/xlink" x="0px" y="0px"
	 viewBox="0 0 51.8 64.7" style="enable-background:new 0 0 51.8 64.7;" xml:space="preserve">
<style type="text/css">
	.st0{fill:#BF9A20;}
	.st1{fill:#FFFFFF;}
</style>
<path class="st0" d="M49.1,11.5c-7.5-0.6-14.5-3.8-19.8-9.1l-1.4-1.4c-1.1-1.1-2.9-1.1-4.1,0l-1.4,1.4c-5.3,5.3-12.3,8.5-19.8,9.1
	C1.1,11.6,0,12.8,0,14.3v8.2c0,17.3,9.4,33.3,24.5,41.9c0.4,0.2,0.9,0.4,1.4,0.3c0.5,0,1-0.1,1.4-0.3c15.1-8.6,24.4-24.5,24.4-41.9
	v-8.2C51.7,12.8,50.6,11.6,49.1,11.5z"/>
<path class="st1" d="M33.3,42.4l1.4,2.8l0.6-0.3L34,42.2l-0.7-6.1L28,33.9c0-0.2-0.1-0.4-0.1-0.6l3.5-3.8c2.3-0.7,4.5-1.5,6.6-2.4
	l-0.3-0.7c-2.2,0.9-4.4,1.7-6.6,2.4l-0.1,0l-3.3,3.6c-0.1-0.7-0.3-1.4-0.4-2.1l3.5-4.6l0-0.1c0.5-1.9,1.8-3.6,3.5-4.5L34,20.6
	c-1.9,1-3.3,2.8-3.9,5l-3.1,4c-0.1-0.6-0.2-1.2-0.3-1.6c-0.4,0.3-0.9,0.5-1.4,0.6c-0.5-0.1-1-0.3-1.4-0.6c-0.1,0.4-0.2,1-0.3,1.6
	l-3.1-4c-0.5-2.1-1.9-3.9-3.9-5l-0.3,0.6c1.7,1,3,2.6,3.5,4.5l0,0.1l3.6,4.6c-0.1,0.7-0.3,1.4-0.4,2.1l-3.3-3.6l-0.1,0
	c-2.3-0.7-4.5-1.4-6.6-2.4l-0.3,0.7c2.2,0.9,4.4,1.7,6.6,2.4l3.5,3.8c0,0.2-0.1,0.4-0.1,0.6l-5.3,2.2l-0.7,6.1l-1.4,2.6l0.6,0.3
	l1.4-2.6l0.7-5.9l4.5-1.8c-0.2,0.8-0.4,1.5-0.5,1.9c-0.7,2.2-2.1,6.3-0.6,8.1c0,0,0.1,0.1,0.1,0.1c0.2,1.6,1.1,3.1,2.3,4.1
	c0.5,0.7,0.9,1.3,1.5,1.3s1-0.5,1.5-1.3c1.3-1,2.1-2.5,2.3-4.1c0,0,0.1-0.1,0.1-0.1c1.5-1.8,0.1-5.9-0.6-8.1
	c-0.1-0.5-0.3-1.1-0.5-1.9l4.5,1.9L33.3,42.4z"/>
<path class="st1" d="M29,23.1c0-0.7-0.1-1.5-0.4-2.1c1.1-3.6,4.9-5.1,4.9-5.1l-0.2-0.7c-2.3,0.9-4.1,2.6-5.1,4.8
	c0-0.1-0.1-0.1-0.1-0.2c-0.1-1-0.5-2.9-1.5-3.3l-0.3,0.7c0.4,0.2,0.7,1,0.9,1.8c-1.1-0.7-2.5-0.7-3.6,0c0.2-0.8,0.5-1.6,0.9-1.8
	l-0.3-0.7c-1,0.4-1.3,2.3-1.5,3.3c0,0.1-0.1,0.1-0.1,0.2c-1-2.2-2.9-3.9-5.1-4.8l-0.3,0.7c0,0,3.9,1.5,4.9,5.1
	c-0.2,0.7-0.4,1.4-0.4,2.1c0,2.6,3,4.7,3.6,4.7S29,25.7,29,23.1z"/>
</svg>
