<?xml version="1.0" encoding="utf-8"?>
<!-- Generator: Adobe Illustrator 25.2.3, SVG Export Plug-In . SVG Version: 6.00 Build 0)  -->
<svg version="1.1" id="Layer_1" xmlns="http://www.w3.org/2000/svg" xmlns:xlink="http://www.w3.org/1999/xlink" x="0px" y="0px"
	 viewBox="0 0 68.6 68.6" style="enable-background:new 0 0 68.6 68.6;" xml:space="preserve">
<style type="text/css">
	.st0{fill:#BF9A20;stroke:#BF9A20;stroke-miterlimit:10;}
	.st1{fill:none;stroke:#BF9A20;stroke-miterlimit:10;}
</style>
<g transform="translate(-370.018 -948)">
	<path class="st0" d="M404.5,948.5c-18.7,0-33.8,15.1-33.8,33.8s15.1,33.8,33.8,33.8c18.7,0,33.8-15.1,33.8-33.8
		C438.3,963.6,423.1,948.5,404.5,948.5C404.5,948.5,404.5,948.5,404.5,948.5z M404.5,1014.5c-17.8,0-32.2-14.4-32.2-32.2
		c0-17.8,14.4-32.2,32.2-32.2c17.8,0,32.2,14.4,32.2,32.2C436.7,1000.1,422.3,1014.5,404.5,1014.5L404.5,1014.5L404.5,1014.5z"/>
	<path class="st0" d="M427.5,965.1c-0.3-0.4-0.8-0.7-1.4-0.8c-0.5,0-1.1,0.2-1.5,0.5l-20.2,20.2c0,0,0,0,0,0l-12,12c0,0,0,0,0,0
		c0,0,0,0,0,0l-5.2,5.2c-0.7,0.7-0.7,1.9,0,2.7c0.1,0.1,0.1,0.1,0.2,0.2c5,3.7,11,5.7,17.2,5.7c0.6,0,1.2,0,1.8-0.1
		c14.8-1,26.4-13.1,26.8-27.9C433.3,976.6,431.3,970.3,427.5,965.1L427.5,965.1z M419.8,986.4c0,8.5-6.9,15.4-15.4,15.4
		c-3.8,0-7.6-1.4-10.4-4l11.3-11.3c0.7-0.3,1.4-0.5,2.1-0.8c5.2-2,9.7-3.7,12.2-1.5C419.8,984.9,419.8,985.6,419.8,986.4z
		 M408.2,983.6l7.6-7.6c1.6,1.7,2.7,3.7,3.4,6C416.3,980.8,412.4,982.1,408.2,983.6z M431.5,983c-0.4,14.9-12.8,26.7-27.8,26.4
		c-5.6-0.1-11-2-15.5-5.4c-0.1,0-0.1-0.1-0.1-0.2c0-0.1,0-0.2,0.1-0.2l4.7-4.7c2.8,2.6,6.5,4.2,10.3,4.5c0.4,0,0.8,0,1.2,0
		c9.4,0,17-7.6,17-17c0-4.3-1.6-8.4-4.5-11.5l8.8-8.8c0.1-0.1,0.1-0.1,0.2-0.1h0c0.1,0,0.2,0,0.2,0.1
		C429.8,971,431.7,976.9,431.5,983L431.5,983z"/>
	<path class="st0" d="M422.1,962.3L422.1,962.3c0.7-0.7,0.7-1.9,0-2.7c-0.1-0.1-0.1-0.1-0.2-0.2c-5-3.9-11.1-5.9-17.4-5.9
		c-15.8,0-28.7,12.8-28.7,28.7c0,6.3,2.1,12.4,5.9,17.4c0.3,0.4,0.8,0.7,1.4,0.7c0,0,0.1,0,0.1,0c0.5,0,1-0.2,1.3-0.6L422.1,962.3z
		 M390.1,992c-0.6-1.5-0.9-3.1-1-4.7c0-0.2,0-0.4,0-0.5c1.3,1,2.9,1.6,4.5,1.8L390.1,992z M389.2,984.8c0.6-5.4,3.9-10.1,8.9-12.4
		c1.5-0.7,2.5-2.3,2.5-3.9v-5.1c0-0.3,0.2-0.5,0.5-0.5l0,0h6.8c0.3,0,0.5,0.2,0.5,0.5l0,0v5.1c0,1.4,0.7,2.7,1.8,3.5L395,987.1
		C392.8,987.1,390.8,986.3,389.2,984.8z M383.4,998.8c-0.1,0.1-0.1,0.1-0.2,0.1c-0.1,0-0.2,0-0.2-0.1c-3.6-4.7-5.6-10.5-5.6-16.4
		c0-14.9,12.1-27.1,27.1-27.1c5.9,0,11.7,1.9,16.4,5.6c0.1,0,0.1,0.1,0.1,0.2c0,0.1,0,0.2-0.1,0.2l0,0l-9.6,9.6
		c-0.8-0.5-1.3-1.4-1.4-2.4v-5.1c0-1.2-1-2.1-2.1-2.1h-6.8c-1.2,0-2.1,1-2.1,2.1v5.1c0,1.1-0.6,2-1.6,2.5c-5.6,2.6-9.4,8-9.9,14.1
		c-0.1,0.8-0.1,1.6,0,2.4c0.1,2,0.6,4,1.4,5.8L383.4,998.8z"/>
	<path class="st1" d="M395.7,978.9c-0.9,0-1.7,0.8-1.7,1.7s0.8,1.7,1.7,1.7c0.9,0,1.7-0.8,1.7-1.7c0,0,0,0,0,0
		C397.4,979.6,396.6,978.9,395.7,978.9L395.7,978.9z"/>
	<path class="st0" d="M411.4,988.7c-1.9,0-3.4,1.5-3.4,3.4c0,1.9,1.5,3.4,3.4,3.4s3.4-1.5,3.4-3.4
		C414.8,990.2,413.3,988.7,411.4,988.7L411.4,988.7z M411.4,993.9c-1,0-1.8-0.8-1.8-1.8c0-1,0.8-1.8,1.8-1.8s1.8,0.8,1.8,1.8
		C413.2,993.1,412.4,993.9,411.4,993.9L411.4,993.9z"/>
</g>
</svg>
